<svg width="157" height="157" viewBox="0 0 157 157" fill="none" xmlns="http://www.w3.org/2000/svg">
<rect width="157" height="157" fill="#FFD500"/>
<path d="M66.702 132.812C65.498 132.812 64.294 132.468 63.09 131.78C61.972 131.178 60.811 130.404 59.607 129.458C57.629 127.652 55.307 125.201 52.641 122.105C49.975 118.923 47.352 115.182 44.772 110.882C42.278 106.496 40.171 101.637 38.451 96.305C36.817 90.887 36 84.996 36 78.632C36 71.408 37.118 64.958 39.354 59.282C41.59 53.606 44.643 48.661 48.513 44.447C52.383 40.233 56.769 36.793 61.671 34.127C66.573 31.375 71.69 29.354 77.022 28.064C82.44 26.688 87.772 26 93.018 26C99.382 26 105.23 27.032 110.562 29.096C115.98 31.074 120.323 34.084 123.591 38.126C126.859 42.168 128.493 47.285 128.493 53.477C128.493 56.573 127.676 59.583 126.042 62.507C124.408 65.431 122.086 67.839 119.076 69.731C116.152 71.623 112.669 72.569 108.627 72.569C106.219 72.569 103.94 72.311 101.79 71.795C99.726 71.193 97.619 70.634 95.469 70.118C93.405 69.516 91.083 69.215 88.503 69.215C85.751 69.215 82.999 69.817 80.247 71.021C77.495 72.139 75.173 73.945 73.281 76.439C71.475 78.933 70.572 82.115 70.572 85.985C70.572 88.135 71.389 89.597 73.023 90.371C74.743 91.059 76.721 91.403 78.957 91.403C80.849 91.403 82.741 91.274 84.633 91.016C86.611 90.758 88.159 90.629 89.277 90.629C92.201 90.629 94.609 91.145 96.501 92.177C98.393 93.209 99.339 95.101 99.339 97.853C99.339 100.605 98.393 102.497 96.501 103.529C94.609 104.561 92.201 105.077 89.277 105.077C86.783 105.077 84.074 104.948 81.15 104.69C78.312 104.346 75.689 104.303 73.281 104.561C72.077 104.647 71.217 105.12 70.701 105.98C70.185 106.84 69.927 107.872 69.927 109.076C69.927 110.71 70.185 112.559 70.701 114.623C71.217 116.687 71.733 118.708 72.249 120.686C72.765 122.664 73.023 124.341 73.023 125.717C73.023 128.211 72.292 130.017 70.83 131.135C69.368 132.253 67.992 132.812 66.702 132.812Z" fill="black"/>
</svg>
