<svg width="415" height="93" viewBox="0 0 415 93" fill="none" xmlns="http://www.w3.org/2000/svg">
<path d="M358.035 91.074V0.773987H414.924V14.19H371.967V77.658H414.924V91.074H358.035ZM364.356 51.471V38.055H407.829V51.471H364.356Z" fill="#FFD400"/>
<path d="M302.227 92.364C295.691 92.364 289.585 91.203 283.909 88.881C278.233 86.473 273.245 83.162 268.945 78.948C264.645 74.734 261.291 69.832 258.883 64.242C256.561 58.566 255.4 52.46 255.4 45.924C255.4 39.474 256.561 33.454 258.883 27.864C261.291 22.274 264.602 17.415 268.816 13.287C273.116 9.073 278.104 5.805 283.78 3.483C289.456 1.161 295.562 0 302.098 0C306.656 0 311.085 0.644999 315.385 1.935C319.771 3.225 323.727 5.031 327.253 7.353C330.779 9.675 333.66 12.341 335.896 15.351L326.866 24.768C322.996 21.07 318.954 18.275 314.74 16.383C310.612 14.491 306.398 13.545 302.098 13.545C297.454 13.545 293.154 14.362 289.198 15.996C285.328 17.63 281.888 19.909 278.878 22.833C275.954 25.757 273.675 29.197 272.041 33.153C270.407 37.023 269.59 41.28 269.59 45.924C269.59 50.396 270.45 54.653 272.17 58.695C273.89 62.651 276.255 66.134 279.265 69.144C282.361 72.154 285.887 74.519 289.843 76.239C293.885 77.959 298.142 78.819 302.614 78.819C305.968 78.819 309.15 78.346 312.16 77.4C315.17 76.368 317.836 74.949 320.158 73.143C322.48 71.337 324.286 69.273 325.576 66.951C326.866 64.543 327.511 62.006 327.511 59.34V56.76L329.446 58.566H301.84V44.763H341.83C342.002 45.709 342.131 46.655 342.217 47.601C342.303 48.461 342.346 49.321 342.346 50.181C342.432 50.955 342.475 51.729 342.475 52.503C342.475 58.437 341.443 63.855 339.379 68.757C337.315 73.573 334.434 77.744 330.736 81.27C327.124 84.796 322.867 87.548 317.965 89.526C313.149 91.418 307.903 92.364 302.227 92.364Z" fill="#FFD400"/>
<path d="M167.932 91.074V0.773987H203.278C209.728 0.773987 215.533 1.84899 220.693 3.99899C225.939 6.14899 230.411 9.24499 234.109 13.287C237.807 17.329 240.645 22.102 242.623 27.606C244.601 33.11 245.59 39.216 245.59 45.924C245.59 52.632 244.601 58.781 242.623 64.371C240.645 69.875 237.807 74.648 234.109 78.69C230.497 82.646 226.068 85.699 220.822 87.849C215.576 89.999 209.728 91.074 203.278 91.074H167.932ZM181.864 79.077L181.477 77.658H202.633C207.191 77.658 211.233 76.927 214.759 75.465C218.371 74.003 221.381 71.939 223.789 69.273C226.283 66.521 228.175 63.167 229.465 59.211C230.755 55.255 231.4 50.826 231.4 45.924C231.4 41.022 230.755 36.636 229.465 32.766C228.175 28.81 226.283 25.456 223.789 22.704C221.295 19.952 218.285 17.845 214.759 16.383C211.233 14.921 207.191 14.19 202.633 14.19H181.09L181.864 13.029V79.077Z" fill="#FFD400"/>
<path d="M110.11 91.848C103.144 91.848 96.9086 90.343 91.4046 87.333C85.9006 84.237 81.5576 80.023 78.3756 74.691C75.2796 69.273 73.7316 63.167 73.7316 56.373V0.644989H87.6636V55.212C87.6636 59.598 88.6956 63.554 90.7596 67.08C92.8236 70.52 95.5326 73.272 98.8866 75.336C102.327 77.4 106.068 78.432 110.11 78.432C114.41 78.432 118.28 77.4 121.72 75.336C125.246 73.272 128.041 70.52 130.105 67.08C132.169 63.554 133.201 59.598 133.201 55.212V0.644989H146.488V56.373C146.488 63.167 144.897 69.273 141.715 74.691C138.619 80.023 134.319 84.237 128.815 87.333C123.311 90.343 117.076 91.848 110.11 91.848Z" fill="#FFD400"/>
<path d="M0 91.074V0.773987H13.932V91.074H0ZM6.192 52.632V39.216H52.761V52.632H6.192ZM6.192 14.19V0.773987H58.566V14.19H6.192Z" fill="#FFD400"/>
</svg>
