<svg width="93" height="107" viewBox="0 0 93 107" fill="none" xmlns="http://www.w3.org/2000/svg">
<path d="M30.702 106.812C29.498 106.812 28.294 106.468 27.09 105.78C25.972 105.178 24.811 104.404 23.607 103.458C21.629 101.652 19.307 99.201 16.641 96.105C13.975 92.923 11.352 89.182 8.772 84.882C6.278 80.496 4.171 75.637 2.451 70.305C0.817 64.887 0 58.996 0 52.632C0 45.408 1.118 38.958 3.354 33.282C5.59 27.606 8.643 22.661 12.513 18.447C16.383 14.233 20.769 10.793 25.671 8.127C30.573 5.37499 35.69 3.35399 41.022 2.064C46.44 0.687998 51.772 0 57.018 0C63.382 0 69.23 1.032 74.562 3.096C79.98 5.074 84.323 8.084 87.591 12.126C90.859 16.168 92.493 21.285 92.493 27.477C92.493 30.573 91.676 33.583 90.042 36.507C88.408 39.431 86.086 41.839 83.076 43.731C80.152 45.623 76.669 46.569 72.627 46.569C70.219 46.569 67.94 46.311 65.79 45.795C63.726 45.193 61.619 44.634 59.469 44.118C57.405 43.516 55.083 43.215 52.503 43.215C49.751 43.215 46.999 43.817 44.247 45.021C41.495 46.139 39.173 47.945 37.281 50.439C35.475 52.933 34.572 56.115 34.572 59.985C34.572 62.135 35.389 63.597 37.023 64.371C38.743 65.059 40.721 65.403 42.957 65.403C44.849 65.403 46.741 65.274 48.633 65.016C50.611 64.758 52.159 64.629 53.277 64.629C56.201 64.629 58.609 65.145 60.501 66.177C62.393 67.209 63.339 69.101 63.339 71.853C63.339 74.605 62.393 76.497 60.501 77.529C58.609 78.561 56.201 79.077 53.277 79.077C50.783 79.077 48.074 78.948 45.15 78.69C42.312 78.346 39.689 78.303 37.281 78.561C36.077 78.647 35.217 79.12 34.701 79.98C34.185 80.84 33.927 81.872 33.927 83.076C33.927 84.71 34.185 86.559 34.701 88.623C35.217 90.687 35.733 92.708 36.249 94.686C36.765 96.664 37.023 98.341 37.023 99.717C37.023 102.211 36.292 104.017 34.83 105.135C33.368 106.253 31.992 106.812 30.702 106.812Z" fill="#FFD400"/>
</svg>
